<svg xmlns="http://www.w3.org/2000/svg" width="1200" height="675" viewBox="0 0 1200 675" role="img" aria-labelledby="title desc"><title id="title">ECG PPG blood pressure analysis flow</title><desc id="desc">ECG and PPG signals feed feature and relationship analysis, blood pressure regression, and risk screening with limits acknowledged.</desc><rect width="1200" height="675" fill="#f6f8fa"/><rect x="44" y="44" width="1112" height="587" rx="28" fill="#fff" stroke="#c8d0d8" stroke-width="2"/><g font-family="NanumBarunGothic,-apple-system,BlinkMacSystemFont,'Segoe UI',sans-serif"><text x="82" y="105" font-size="23" font-weight="700" fill="#80652e">ECG · PPG → BLOOD PRESSURE ANALYSIS</text><text x="82" y="139" font-size="16" fill="#59636e">relationship analysis → regression limits → risk screening</text><rect x="82" y="202" width="238" height="280" rx="18" fill="#eef1f4" stroke="#c8d0d8"/><text x="108" y="245" font-size="17" font-weight="700" fill="#1f2328">Physiologic Signals</text><text x="108" y="288" font-size="14" font-weight="700" fill="#3d444d">ECG</text><path d="M108 320h28l9-16 10 42 13-76 12 50h66" fill="none" stroke="#80652e" stroke-width="3.5" stroke-linecap="round" stroke-linejoin="round"/><text x="108" y="382" font-size="14" font-weight="700" fill="#3d444d">PPG</text><path d="M108 418c18-46 31-49 44-5 10 33 29 20 39-3 13-31 31-18 55 5" fill="none" stroke="#8c959f" stroke-width="3.5" stroke-linecap="round"/><text x="108" y="455" font-size="13" fill="#59636e">case-level windows</text><path d="M336 342H395" stroke="#8c959f" stroke-width="2.5"/><path d="M386 334l10 8-10 8" fill="none" stroke="#8c959f" stroke-width="2.5"/><rect x="410" y="225" width="198" height="234" rx="18" fill="#fff" stroke="#c8d0d8"/><text x="438" y="268" font-size="17" font-weight="700" fill="#1f2328">Feature + Relation</text><text x="438" y="308" font-size="14" fill="#59636e">timing · amplitude</text><text x="438" y="338" font-size="14" fill="#59636e">variability</text><text x="438" y="368" font-size="14" fill="#59636e">clinical / trend</text><text x="438" y="410" font-size="13" fill="#80652e">EDA + statistical tests</text><path d="M622 342H681" stroke="#8c959f" stroke-width="2.5"/><path d="M672 334l10 8-10 8" fill="none" stroke="#8c959f" stroke-width="2.5"/><rect x="696" y="202" width="194" height="280" rx="18" fill="#eee8dc" stroke="#c9b98f"/><text x="724" y="245" font-size="17" font-weight="700" fill="#1f2328">Blood Pressure</text><rect x="724" y="278" width="138" height="48" rx="10" fill="#fff" stroke="#c8d0d8"/><text x="752" y="308" font-size="14" font-weight="700" fill="#3d444d">Regression</text><text x="724" y="358" font-size="13" fill="#59636e">limited absolute-value</text><text x="724" y="381" font-size="13" fill="#59636e">prediction</text><rect x="724" y="410" width="138" height="44" rx="10" fill="#fff" stroke="#c8d0d8"/><text x="745" y="438" font-size="14" font-weight="700" fill="#3d444d">Risk Screening</text><path d="M904 342H963" stroke="#8c959f" stroke-width="2.5"/><path d="M954 334l10 8-10 8" fill="none" stroke="#8c959f" stroke-width="2.5"/><rect x="978" y="228" width="138" height="228" rx="18" fill="#2d333b"/><text x="1004" y="273" font-size="17" font-weight="700" fill="#f6f8fa">Finding</text><text x="1004" y="313" font-size="13" fill="#cdd9e5">not a cuff</text><text x="1004" y="339" font-size="13" fill="#cdd9e5">replacement</text><line x1="1004" y1="363" x2="1088" y2="363" stroke="#545d68"/><text x="1004" y="397" font-size="13" fill="#c1a66b">better suited for</text><text x="1004" y="421" font-size="13" fill="#c1a66b">auxiliary screening</text><rect x="410" y="514" width="706" height="64" rx="14" fill="#eef1f4" stroke="#c8d0d8"/><text x="444" y="554" font-size="15" fill="#3d444d">Case-level split · regression + classification · interpretation of limits</text></g></svg>