<svg xmlns="http://www.w3.org/2000/svg" width="1200" height="675" viewBox="0 0 1200 675"><rect width="1200" height="675" fill="#0e1419"/><text x="48" y="70" fill="#e9edf0" font-size="34" font-family="Georgia,serif">Manufacturing Time-Series</text><text x="48" y="102" fill="#8f99a2" font-size="15" font-family="Arial,sans-serif" letter-spacing="3">PRE-ANOMALY DETECTION · SENSOR MONITORING</text><rect x="555" y="125" width="190" height="365" fill="#c89b5c" opacity=".10"/><text x="575" y="145" fill="#e0b77d" font-size="14" font-family="Arial,sans-serif" letter-spacing="2">PRE-ANOMALY WINDOW</text><line x1="805" y1="124" x2="805" y2="500" stroke="#e9edf0" stroke-width="2" stroke-dasharray="7 7"/><text x="820" y="145" fill="#e9edf0" font-size="14" font-family="Arial,sans-serif">SOH transition</text><g font-family="Arial,sans-serif" fill="#8f99a2" font-size="16"><text x="50" y="205">Voltage</text><text x="50" y="285">Current</text><text x="50" y="365">Harmonic</text><text x="50" y="445">Power factor</text></g><path d="M145 195 C190 185 225 205 260 195 C300 183 340 203 380 193 C420 181 460 202 500 192 C540 182 585 207 620 189 C660 169 692 211 730 188 C760 176 780 196 805 178 C830 165 858 192 910 181" fill="none" stroke="#e9edf0" stroke-width="2.5"/><path d="M145 275 C190 286 220 266 260 278 C298 290 340 268 378 280 C420 294 460 271 500 279 C540 286 575 260 615 274 C655 288 692 250 730 275 C760 290 782 266 805 282 C830 295 858 270 910 279" fill="none" stroke="#8f99a2" stroke-width="2.2"/><path d="M145 355 C185 350 222 360 260 351 C300 343 338 364 380 350 C420 338 462 364 500 348 C538 333 577 368 615 344 C655 320 690 374 730 340 C760 314 783 360 805 330 C832 306 862 350 910 326" fill="none" stroke="#e0b77d" stroke-width="2.8"/><path d="M145 435 C190 430 220 438 260 432 C300 426 338 439 380 431 C420 425 460 440 500 430 C540 420 580 442 615 428 C650 414 690 444 730 425 C760 413 783 435 805 420 C835 407 860 430 910 418" fill="none" stroke="#5f6b74" stroke-width="2.2"/><g transform="translate(950,190)"><rect x="0" y="0" width="205" height="230" rx="14" fill="#111a21" stroke="#34424c"/><text x="18" y="38" fill="#e9edf0" font-size="18" font-family="Arial,sans-serif">Reconstruction error</text><line x1="18" y1="152" x2="187" y2="152" stroke="#c89b5c" stroke-dasharray="6 5"/><text x="123" y="143" fill="#e0b77d" font-size="13" font-family="Arial,sans-serif">threshold</text><path d="M18 182 C55 183 85 180 110 175 C128 171 139 158 150 128 C162 95 176 99 188 126" fill="none" stroke="#e0b77d" stroke-width="3"/></g></svg>