<svg xmlns="http://www.w3.org/2000/svg" width="1600" height="900" viewBox="0 0 1600 900" role="img" aria-labelledby="title desc">
<title id="title">제조 공정 시계열 이상징후 조기탐지</title>
<desc id="desc">전압, 전류, 고조파, 역률의 시계열에서 사전 이상 구간과 SOH 전환을 표시하고, LSTM-Autoencoder 재구성 오차와 임계값으로 이상징후를 탐지하는 제조 AI 모니터링 개요.</desc>
<defs>
  <linearGradient id="bg" x1="0" y1="0" x2="1" y2="1"><stop stop-color="#0b1217"/><stop offset="1" stop-color="#101a21"/></linearGradient>
  <linearGradient id="goldFill" x1="0" y1="0" x2="0" y2="1"><stop stop-color="#d8a84d" stop-opacity=".24"/><stop offset="1" stop-color="#d8a84d" stop-opacity=".08"/></linearGradient>
  <filter id="shadow" x="-30%" y="-30%" width="160%" height="160%"><feDropShadow dx="0" dy="8" stdDeviation="12" flood-color="#000" flood-opacity=".35"/></filter>
  <style>.ko{font-family:"NanumBarunGothic","Noto Sans KR","Apple SD Gothic Neo","Segoe UI",sans-serif}.en{font-family:"Segoe UI",Arial,sans-serif}.muted{fill:#9ca9b4}.white{fill:#e7edf3}.gold{fill:#f0bd58}.line{stroke:#27343d;stroke-width:1}</style>
</defs>
<rect width="1600" height="900" fill="url(#bg)"/>
<rect x="52" y="62" width="7" height="94" rx="2" fill="#d6a84c"/>
<text class="ko white" x="82" y="108" font-size="48" font-weight="700">제조 공정 시계열 이상징후 조기탐지</text>
<text class="ko muted" x="84" y="153" font-size="25">사전 이상 구간 탐지 · 센서 모니터링으로 안정적인 설비 운영</text>
<text class="ko muted" x="1182" y="91" font-size="18">데이터 분석</text><line x1="1310" y1="70" x2="1310" y2="98" stroke="#58646d"/>
<text class="ko muted" x="1342" y="91" font-size="18">이상탐지</text><line x1="1452" y1="70" x2="1452" y2="98" stroke="#58646d"/>
<text class="ko muted" x="1481" y="91" font-size="18">예지보전</text>
<g filter="url(#shadow)"><rect x="56" y="238" width="160" height="106" rx="12" fill="#172129" stroke="#2e3b45"/><rect x="56" y="363" width="160" height="106" rx="12" fill="#172129" stroke="#2e3b45"/><rect x="56" y="488" width="160" height="106" rx="12" fill="#172129" stroke="#2e3b45"/><rect x="56" y="613" width="160" height="106" rx="12" fill="#172129" stroke="#2e3b45"/></g>
<g class="ko white" font-weight="700" font-size="22"><text x="128" y="284">전압</text><text class="muted" x="132" y="315" font-size="16" font-weight="400">(V)</text><text x="128" y="409">전류</text><text class="muted" x="132" y="440" font-size="16" font-weight="400">(A)</text><text x="128" y="534">고조파</text><text class="muted" x="128" y="565" font-size="16" font-weight="400">(THD)</text><text x="128" y="659">역률</text><text class="muted" x="132" y="690" font-size="16" font-weight="400">(PF)</text></g>
<path d="M89 263 l-14 24 h18 l-8 24 28-34H96l10-14z" fill="none" stroke="#f0bd58" stroke-width="4" stroke-linejoin="round"/><path d="M76 418 h13 l8-20 12 40 9-23 h17" fill="none" stroke="#f0bd58" stroke-width="4"/><g stroke="#f0bd58" stroke-width="4" fill="none"><path d="M78 553v17"/><path d="M91 539v31"/><path d="M104 526v44"/><path d="M117 544v26"/></g><path d="M78 679 a25 25 0 0 1 50 0" fill="none" stroke="#f0bd58" stroke-width="4"/><line x1="103" y1="677" x2="120" y2="660" stroke="#f0bd58" stroke-width="4"/>
<g transform="translate(240,230)"><rect x="0" y="0" width="725" height="505" rx="10" fill="#101920" stroke="#26333c"/><g opacity=".75"><line class="line" x1="0" y1="95" x2="725" y2="95"/><line class="line" x1="0" y1="190" x2="725" y2="190"/><line class="line" x1="0" y1="285" x2="725" y2="285"/><line class="line" x1="0" y1="380" x2="725" y2="380"/><line class="line" x1="0" y1="475" x2="725" y2="475"/><line class="line" x1="75" y1="0" x2="75" y2="505"/><line class="line" x1="190" y1="0" x2="190" y2="505"/><line class="line" x1="305" y1="0" x2="305" y2="505"/><line class="line" x1="420" y1="0" x2="420" y2="505"/><line class="line" x1="535" y1="0" x2="535" y2="505"/><line class="line" x1="650" y1="0" x2="650" y2="505"/></g><rect x="265" y="0" width="180" height="475" fill="url(#goldFill)" stroke="#d6a84c" stroke-width="1.5"/><text class="ko gold" x="305" y="-12" font-size="20" font-weight="700">사전 이상 구간</text><line x1="552" y1="0" x2="552" y2="475" stroke="#f0bd58" stroke-width="2" stroke-dasharray="8 8"/><text class="ko white" x="520" y="-12" font-size="19" font-weight="700">SOH 전환</text><polyline points="0,77 28,71 55,77 83,70 110,76 138,73 165,82 193,75 220,78 248,76 275,76 303,77 330,75 358,80 385,78 413,75 440,79 468,85 495,84 522,83 550,80 575,62 600,76 620,48 638,70 652,38 666,66 683,52 700,69 725,55" fill="none" stroke="#77baf0" stroke-width="3"/><polyline points="0,173 28,176 55,170 83,177 110,171 138,178 165,172 193,176 220,171 248,177 275,174 303,176 330,173 358,178 385,175 413,176 440,173 468,178 495,174 522,176 550,174 575,158 600,171 620,146 638,164 652,140 666,159 683,148 700,160 725,146" fill="none" stroke="#f0bd58" stroke-width="3"/><polyline points="0,269 28,267 55,271 83,264 110,271 138,268 165,272 193,266 220,270 248,269 275,268 303,271 330,267 358,273 385,268 413,271 440,266 468,272 495,267 522,271 550,268 575,251 600,269 620,240 638,263 652,231 666,257 683,239 700,256 725,239" fill="none" stroke="#63c7b0" stroke-width="3"/><polyline points="0,364 28,360 55,365 83,359 110,364 138,360 165,365 193,361 220,364 248,360 275,365 303,362 330,364 358,361 385,364 413,362 440,365 468,367 495,366 522,368 550,371 575,383 600,376 620,396 638,381 652,406 666,389 683,400 700,386 725,397" fill="none" stroke="#9d88e8" stroke-width="3"/><text class="ko muted" x="344" y="502" font-size="18">시간</text></g>
<g transform="translate(1005,230)" filter="url(#shadow)"><rect x="0" y="0" width="535" height="285" rx="14" fill="#111b22" stroke="#3a4750"/><text class="ko white" x="32" y="52" font-size="28" font-weight="700">재구성 오차</text><line x1="33" y1="192" x2="505" y2="192" stroke="#d6a84c" stroke-width="2" stroke-dasharray="8 8"/><text class="ko muted" x="32" y="179" font-size="17">임계값</text><g opacity=".7"><line class="line" x1="32" y1="105" x2="505" y2="105"/><line class="line" x1="32" y1="145" x2="505" y2="145"/><line class="line" x1="32" y1="235" x2="505" y2="235"/></g><path d="M33 247 C110 247 140 245 185 237 C232 229 265 221 305 211 C335 203 365 196 385 169 C402 147 414 104 437 92 C461 82 473 102 505 104 L505 255 L33 255 Z" fill="#d8a84d" opacity=".10"/><path d="M33 247 C110 247 140 245 185 237 C232 229 265 221 305 211 C335 203 365 196 385 169 C402 147 414 104 437 92 C461 82 473 102 505 104" fill="none" stroke="#f0bd58" stroke-width="4"/><circle cx="437" cy="92" r="12" fill="#f0bd58"/><circle cx="437" cy="92" r="22" fill="#f0bd58" opacity=".18"/><text class="ko gold" x="390" y="62" font-size="18" font-weight="700">이상 탐지</text></g>
<g transform="translate(1005,535)" filter="url(#shadow)"><rect x="0" y="0" width="535" height="200" rx="14" fill="#101920" stroke="#34424c"/><rect x="20" y="38" width="148" height="125" rx="10" fill="#131e25" stroke="#41505a"/><rect x="194" y="38" width="170" height="125" rx="10" fill="#131e25" stroke="#41505a"/><rect x="390" y="38" width="125" height="125" rx="10" fill="#131e25" stroke="#41505a"/><text class="ko white" x="38" y="106" font-size="18" font-weight="700">시계열 데이터</text><text class="ko muted" x="51" y="134" font-size="14">센서 수집</text><text class="en white" x="207" y="106" font-size="18" font-weight="700">LSTM-Autoencoder</text><text class="ko muted" x="217" y="134" font-size="14">정상 패턴 학습 / 재구성</text><text class="ko white" x="405" y="106" font-size="18" font-weight="700">이상징후 탐지</text><text class="ko muted" x="409" y="134" font-size="14">조기 탐지 · 모니터링</text><line x1="168" y1="100" x2="190" y2="100" stroke="#f0bd58" stroke-width="2"/><path d="M184 94l8 6-8 6" fill="none" stroke="#f0bd58" stroke-width="2"/><line x1="364" y1="100" x2="386" y2="100" stroke="#f0bd58" stroke-width="2"/><path d="M380 94l8 6-8 6" fill="none" stroke="#f0bd58" stroke-width="2"/><rect x="73" y="56" width="42" height="30" rx="4" fill="none" stroke="#f0bd58" stroke-width="2"/><polyline points="79,78 87,69 95,74 103,64 111,70" fill="none" stroke="#f0bd58" stroke-width="2"/><circle cx="279" cy="66" r="7" fill="none" stroke="#f0bd58" stroke-width="2"/><circle cx="245" cy="84" r="7" fill="none" stroke="#f0bd58" stroke-width="2"/><circle cx="313" cy="84" r="7" fill="none" stroke="#f0bd58" stroke-width="2"/><circle cx="279" cy="92" r="7" fill="none" stroke="#f0bd58" stroke-width="2"/><line x1="273" y1="70" x2="251" y2="81" stroke="#f0bd58" stroke-width="2"/><line x1="285" y1="70" x2="307" y2="81" stroke="#f0bd58" stroke-width="2"/><line x1="279" y1="73" x2="279" y2="85" stroke="#f0bd58" stroke-width="2"/><path d="M451 55 l24 41 h-48z" fill="none" stroke="#f0bd58" stroke-width="3"/><line x1="451" y1="67" x2="451" y2="82" stroke="#f0bd58" stroke-width="3"/><circle cx="451" cy="88" r="2" fill="#f0bd58"/></g>
<text class="ko muted" x="57" y="840" font-size="17">제조 공정의 안정적인 운영을 위한 데이터 기반 예지보전</text><line x1="1180" y1="834" x2="1242" y2="834" stroke="#d6a84c" stroke-width="2"/><text class="en muted" x="1270" y="840" font-size="17">From Data to Reliable Operations</text>
</svg>