<svg xmlns="http://www.w3.org/2000/svg" width="1280" height="720" viewBox="0 0 1280 720" role="img" aria-labelledby="title desc">
  <title id="title">UEBA 이상 후보 분석</title>
  <desc id="desc">이상 후보를 선별하고 원인 분석과 실제 행위 확인으로 연결하는 UEBA 분석 흐름의 개념 시각화</desc>
  <defs>
    <linearGradient id="bg" x1="0" y1="0" x2="1" y2="1">
      <stop offset="0" stop-color="#11181e"/>
      <stop offset="1" stop-color="#0c1217"/>
    </linearGradient>
    <linearGradient id="candidate" x1="0" y1="0" x2="0" y2="1">
      <stop offset="0" stop-color="#c8a35b" stop-opacity=".24"/>
      <stop offset="1" stop-color="#c8a35b" stop-opacity=".06"/>
    </linearGradient>
    <style>
      .kr { font-family: NanumBarunGothic, "Noto Sans KR", "Apple SD Gothic Neo", sans-serif; }
      .muted { fill:#93a0aa; }
      .text { fill:#e8edf1; }
      .accent { fill:#d0aa5e; }
      .panel { fill:#141c22; stroke:#394650; stroke-width:1.5; }
      .hair { stroke:#34414a; stroke-width:1; }
    </style>
  </defs>
  <rect width="1280" height="720" fill="url(#bg)"/>
  <rect x="36" y="34" width="4" height="74" rx="2" fill="#c8a35b"/>
  <text class="kr text" x="58" y="66" font-size="34" font-weight="700">UEBA</text>
  <text class="kr text" x="58" y="98" font-size="21">이상 후보 분석</text>
  <text class="kr muted" x="1022" y="60" font-size="14" letter-spacing="2">보안 행동 로그 · 설명 가능한 이상탐지</text>
  <rect class="panel" x="28" y="126" width="690" height="518" rx="14"/>
  <rect x="50" y="150" width="40" height="40" rx="9" fill="#11181e" stroke="#c8a35b"/>
  <path d="M61 178l8-8 7 5 10-13" fill="none" stroke="#d0aa5e" stroke-width="3"/>
  <text class="kr text" x="108" y="180" font-size="27" font-weight="700">이상 후보</text>
  <text class="kr muted" x="552" y="177" font-size="15">후보 → 점수 · Threshold</text>
  <rect x="522" y="205" width="144" height="30" rx="8" fill="#1b242b" stroke="#3b4852"/>
  <text class="kr muted" x="557" y="226" font-size="14">개념 시각화</text>
  <g opacity=".82">
    <line class="hair" x1="86" y1="286" x2="680" y2="286"/><line class="hair" x1="86" y1="346" x2="680" y2="346"/><line class="hair" x1="86" y1="406" x2="680" y2="406"/><line class="hair" x1="86" y1="466" x2="680" y2="466"/><line class="hair" x1="86" y1="526" x2="680" y2="526"/>
    <line class="hair" x1="170" y1="250" x2="170" y2="548"/><line class="hair" x1="280" y1="250" x2="280" y2="548"/><line class="hair" x1="390" y1="250" x2="390" y2="548"/><line class="hair" x1="500" y1="250" x2="500" y2="548"/><line class="hair" x1="610" y1="250" x2="610" y2="548"/>
  </g>
  <text class="kr muted" x="55" y="260" font-size="17">이상 점수</text>
  <text class="kr muted" x="623" y="578" font-size="15">시간</text>
  <rect x="390" y="250" width="110" height="298" fill="url(#candidate)"/>
  <line x1="390" y1="250" x2="390" y2="548" stroke="#c8a35b" stroke-width="1.5" stroke-dasharray="7 7"/>
  <line x1="500" y1="250" x2="500" y2="548" stroke="#c8a35b" stroke-width="1.5" stroke-dasharray="7 7"/>
  <line x1="86" y1="393" x2="680" y2="393" stroke="#c8a35b" stroke-width="2" stroke-dasharray="8 7"/>
  <text class="kr accent" x="620" y="383" font-size="15">임계값</text>
  <path d="M86 518 L112 511 L138 519 L164 506 L190 514 L216 503 L242 510 L268 496 L294 502 L320 486 L346 495 L372 474 L390 458 L404 426 L416 390 L428 324 L440 277 L452 350 L466 420 L480 388 L494 445 L520 470 L546 454 L572 482 L598 467 L624 490 L650 478 L680 488" fill="none" stroke="#92b1c6" stroke-width="3.2" stroke-linecap="round" stroke-linejoin="round"/>
  <circle cx="440" cy="277" r="6" fill="#e8edf1" stroke="#c8a35b" stroke-width="3"/>
  <rect x="402" y="225" width="78" height="32" rx="7" fill="#1a2025" stroke="#c8a35b"/>
  <text class="kr accent" x="419" y="247" font-size="16" font-weight="700">이상 후보</text>
  <line x1="441" y1="257" x2="441" y2="270" stroke="#c8a35b" stroke-width="2"/>
  <text class="kr muted" x="56" y="612" font-size="15">정답 라벨이 제한된 환경에서 우선 검토 후보를 줄이고 분석 근거를 연결</text>
  <rect class="panel" x="736" y="126" width="516" height="250" rx="14"/>
  <g transform="translate(760 151)"><rect x="0" y="0" width="40" height="40" rx="8" fill="#11181e"/><rect x="8" y="22" width="5" height="12" fill="#c8a35b"/><rect x="17" y="14" width="5" height="20" fill="#c8a35b"/><rect x="26" y="6" width="5" height="28" fill="#c8a35b"/></g>
  <text class="kr text" x="816" y="180" font-size="27" font-weight="700">원인 분석</text>
  <text class="kr muted" x="1046" y="177" font-size="14">주요 Feature 기여 (SHAP)</text>
  <g class="kr"><text class="text" x="760" y="228" font-size="16">외부송신 트래픽 변화</text><text class="text" x="760" y="267" font-size="16">프로세스 사용 패턴 변화</text><text class="text" x="760" y="306" font-size="16">파일 접근·쓰기 패턴 변화</text><text class="text" x="760" y="345" font-size="16">사용자 기준선 대비 변화</text></g>
  <g><rect x="985" y="212" width="220" height="18" rx="4" fill="#29333b"/><rect x="985" y="251" width="220" height="18" rx="4" fill="#29333b"/><rect x="985" y="290" width="220" height="18" rx="4" fill="#29333b"/><rect x="985" y="329" width="220" height="18" rx="4" fill="#29333b"/><rect x="985" y="212" width="176" height="18" rx="4" fill="#c8a35b"/><rect x="985" y="251" width="145" height="18" rx="4" fill="#b89958"/><rect x="985" y="290" width="112" height="18" rx="4" fill="#a98d59"/><rect x="985" y="329" width="82" height="18" rx="4" fill="#9a845c"/></g>
  <rect class="panel" x="736" y="394" width="516" height="250" rx="14"/>
  <rect x="760" y="419" width="40" height="40" rx="8" fill="#11181e" stroke="#c8a35b"/><path d="M770 432h20M770 440h16M770 448h19" stroke="#d0aa5e" stroke-width="2"/>
  <text class="kr text" x="816" y="448" font-size="27" font-weight="700">행위 확인</text>
  <text class="kr muted" x="1090" y="446" font-size="14">점수 → 실제 행위</text>
  <line class="hair" x1="760" y1="486" x2="1225" y2="486"/><line class="hair" x1="760" y1="528" x2="1225" y2="528"/><line class="hair" x1="760" y1="570" x2="1225" y2="570"/><line class="hair" x1="760" y1="612" x2="1225" y2="612"/><line class="hair" x1="905" y1="470" x2="905" y2="612"/>
  <text class="kr muted" x="772" y="478" font-size="14">확인 항목</text><text class="kr muted" x="930" y="478" font-size="14">분석 내용</text>
  <g class="kr text" font-size="16"><text x="772" y="513">프로세스</text><text x="930" y="513">프로세스별 활동 패턴 비교</text><text x="772" y="555">파일</text><text x="930" y="555">접근·쓰기 패턴 변화 확인</text><text x="772" y="597">네트워크</text><text x="930" y="597">외부·내부 통신 방향 비교</text></g>
  <text class="kr muted" x="36" y="688" font-size="14">이상 후보 → 원인 분석 → 실제 행위 확인</text>
  <line x1="1030" y1="683" x2="1066" y2="683" stroke="#c8a35b" stroke-width="2"/>
  <text class="kr muted" x="1080" y="688" font-size="14">Security AI · UEBA</text>
</svg>
